<svg width="14" height="15" viewBox="0 0 14 15" fill="none" xmlns="http://www.w3.org/2000/svg">
<path fill-rule="evenodd" clip-rule="evenodd" d="M3.98237 0.620968C4.70475 0.587712 4.93508 0.580322 6.7752 0.580322C8.61533 0.580322 8.84565 0.588328 9.56742 0.620968C10.2892 0.653607 10.7818 0.768769 11.2129 0.935661C11.6643 1.10625 12.0739 1.37291 12.4126 1.71778C12.7575 2.05587 13.0235 2.46479 13.1935 2.91681C13.361 3.3479 13.4755 3.84057 13.5088 4.5611C13.542 5.28471 13.5494 5.51504 13.5494 7.35455C13.5494 9.19467 13.5414 9.425 13.5088 10.1474C13.4761 10.8679 13.361 11.3606 13.1935 11.7917C13.0235 12.2437 12.757 12.6533 12.4126 12.9919C12.0739 13.3368 11.6643 13.6028 11.2129 13.7728C10.7818 13.9403 10.2892 14.0549 9.56865 14.0881C8.84565 14.1214 8.61533 14.1288 6.7752 14.1288C4.93508 14.1288 4.70475 14.1208 3.98237 14.0881C3.26184 14.0555 2.76917 13.9403 2.33808 13.7728C1.88601 13.6028 1.47642 13.3363 1.13781 12.9919C0.793179 12.6536 0.526481 12.2442 0.356316 11.7923C0.189423 11.3612 0.0748772 10.8685 0.0416219 10.148C0.00836662 9.42438 0.000976562 9.19406 0.000976562 7.35455C0.000976562 5.51442 0.00898246 5.2841 0.0416219 4.56234C0.0742614 3.84057 0.189423 3.3479 0.356316 2.91681C0.526732 2.46484 0.793634 2.05545 1.13843 1.71716C1.47655 1.3726 1.88573 1.10591 2.33747 0.935661C2.76856 0.768769 3.26123 0.654223 3.98176 0.620968H3.98237ZM9.51261 1.84033C8.79823 1.80769 8.58392 1.80091 6.7752 1.80091C4.96648 1.80091 4.75217 1.80769 4.0378 1.84033C3.377 1.8705 3.01859 1.98074 2.77964 2.07373C2.46372 2.1969 2.2377 2.34285 2.0006 2.57995C1.77585 2.79861 1.60288 3.06479 1.49439 3.35899C1.40139 3.59793 1.29116 3.95635 1.26098 4.61715C1.22834 5.33152 1.22157 5.54583 1.22157 7.35455C1.22157 9.16327 1.22834 9.37758 1.26098 10.092C1.29116 10.7527 1.40139 11.1112 1.49439 11.3501C1.60277 11.6439 1.77582 11.9105 2.0006 12.1291C2.21923 12.3539 2.48589 12.527 2.77964 12.6354C3.01859 12.7284 3.377 12.8386 4.0378 12.8688C4.75217 12.9014 4.96587 12.9082 6.7752 12.9082C8.58454 12.9082 8.79823 12.9014 9.51261 12.8688C10.1734 12.8386 10.5318 12.7284 10.7708 12.6354C11.0867 12.5122 11.3127 12.3662 11.5498 12.1291C11.7746 11.9105 11.9476 11.6439 12.056 11.3501C12.149 11.1112 12.2592 10.7527 12.2894 10.092C12.3221 9.37758 12.3288 9.16327 12.3288 7.35455C12.3288 5.54583 12.3221 5.33152 12.2894 4.61715C12.2592 3.95635 12.149 3.59793 12.056 3.35899C11.9329 3.04306 11.7869 2.81705 11.5498 2.57995C11.3311 2.35521 11.065 2.18225 10.7708 2.07373C10.5318 1.98074 10.1734 1.8705 9.51261 1.84033ZM5.90995 9.44286C6.39317 9.64401 6.93124 9.67116 7.43226 9.51967C7.93327 9.36817 8.36616 9.04744 8.65697 8.61224C8.94777 8.17704 9.07847 7.65438 9.02674 7.13353C8.975 6.61267 8.74404 6.12593 8.3733 5.75645C8.13697 5.52026 7.8512 5.33941 7.53658 5.22692C7.22196 5.11442 6.88632 5.07309 6.55381 5.10588C6.22129 5.13868 5.90019 5.24479 5.61361 5.41658C5.32703 5.58837 5.0821 5.82157 4.89646 6.09938C4.71083 6.37719 4.58909 6.6927 4.54003 7.0232C4.49096 7.35371 4.51578 7.69098 4.61271 8.01073C4.70963 8.33049 4.87625 8.62478 5.10056 8.87242C5.32488 9.12006 5.60131 9.31488 5.90995 9.44286ZM4.31308 4.89242C4.63641 4.56909 5.02026 4.31261 5.44271 4.13763C5.86516 3.96264 6.31794 3.87258 6.7752 3.87258C7.23246 3.87258 7.68524 3.96264 8.10769 4.13763C8.53015 4.31261 8.91399 4.56909 9.23733 4.89242C9.56066 5.21576 9.81714 5.5996 9.99212 6.02206C10.1671 6.44451 10.2572 6.89729 10.2572 7.35455C10.2572 7.81181 10.1671 8.26459 9.99212 8.68704C9.81714 9.10949 9.56066 9.49334 9.23733 9.81667C8.58433 10.4697 7.69868 10.8365 6.7752 10.8365C5.85173 10.8365 4.96607 10.4697 4.31308 9.81667C3.66008 9.16368 3.29323 8.27802 3.29323 7.35455C3.29323 6.43107 3.66008 5.54542 4.31308 4.89242ZM11.0294 4.39113C11.1095 4.31555 11.1737 4.22466 11.2181 4.12384C11.2624 4.02303 11.2861 3.91433 11.2877 3.80419C11.2893 3.69406 11.2688 3.58472 11.2274 3.48265C11.186 3.38059 11.1245 3.28786 11.0466 3.20998C10.9687 3.13209 10.876 3.07062 10.774 3.02922C10.6719 2.98781 10.5626 2.9673 10.4524 2.9689C10.3423 2.97051 10.2336 2.9942 10.1328 3.03856C10.032 3.08293 9.94106 3.14707 9.86548 3.2272C9.71849 3.38302 9.63801 3.59 9.64113 3.80419C9.64425 4.01839 9.73073 4.22293 9.88221 4.37441C10.0337 4.52588 10.2382 4.61236 10.4524 4.61548C10.6666 4.6186 10.8736 4.53813 11.0294 4.39113Z" fill="#222831"/>
</svg>
